<svg id="svg" version="1.1" xmlns="http://www.w3.org/2000/svg" xmlns:xlink="http://www.w3.org/1999/xlink" width="400" height="400" viewBox="0, 0, 400,400"><g id="svgg"><path id="path0" d="M121.669 145.509 C 121.670 145.586,122.383 146.690,123.253 147.963 C 124.124 149.236,125.625 151.444,126.591 152.870 C 128.485 155.669,131.555 160.175,134.112 163.912 C 134.991 165.197,136.580 167.530,137.643 169.097 C 138.705 170.663,140.258 172.944,141.095 174.167 C 141.931 175.389,143.406 177.556,144.372 178.981 C 145.338 180.407,146.925 182.741,147.900 184.167 C 151.048 188.770,153.428 192.260,155.099 194.722 C 155.997 196.046,157.497 198.255,158.431 199.630 C 159.365 201.005,160.752 203.046,161.514 204.167 C 163.079 206.471,164.890 209.122,166.575 211.574 C 167.205 212.491,168.539 214.449,169.538 215.926 C 170.538 217.403,171.954 219.486,172.685 220.556 C 173.416 221.625,174.830 223.708,175.828 225.185 C 176.825 226.662,177.922 228.257,178.265 228.729 L 178.889 229.587 178.889 241.553 L 178.889 253.519 125.556 253.519 L 72.223 253.519 72.176 199.861 L 72.130 146.204 54.259 146.204 L 36.389 146.204 36.342 214.306 L 36.296 282.407 69.028 282.449 C 117.260 282.510,198.564 282.414,207.454 282.287 L 215.185 282.175 215.186 256.041 L 215.187 229.907 216.027 228.704 C 216.488 228.042,217.660 226.333,218.631 224.907 C 219.602 223.481,220.998 221.440,221.733 220.370 C 224.039 217.014,225.923 214.257,227.746 211.574 C 228.715 210.148,230.312 207.815,231.294 206.389 C 232.914 204.038,233.888 202.612,237.872 196.759 C 238.565 195.741,239.563 194.282,240.091 193.519 C 240.618 192.755,241.620 191.296,242.317 190.278 C 243.015 189.259,244.016 187.801,244.541 187.037 C 245.067 186.273,246.148 184.690,246.944 183.519 C 247.741 182.347,248.822 180.764,249.347 180.000 C 249.872 179.236,250.750 177.944,251.298 177.130 C 251.846 176.315,252.459 175.461,252.661 175.231 L 253.028 174.815 273.458 174.815 L 293.889 174.815 293.889 229.444 L 293.889 284.074 312.222 284.074 L 330.555 284.074 330.602 229.491 L 330.648 174.907 351.250 174.860 L 371.852 174.813 371.852 160.092 L 371.852 145.370 301.969 145.370 L 232.087 145.370 230.429 147.917 C 229.517 149.317,228.360 151.110,227.857 151.901 C 227.355 152.692,226.278 154.365,225.463 155.619 C 224.648 156.873,223.523 158.623,222.963 159.509 C 222.403 160.395,221.278 162.142,220.463 163.391 C 219.648 164.640,218.273 166.766,217.407 168.115 C 214.635 172.434,213.665 173.942,212.501 175.741 C 211.875 176.708,210.749 178.458,210.000 179.630 C 208.558 181.884,206.872 184.499,205.284 186.944 C 204.755 187.759,204.028 188.884,203.668 189.444 C 201.424 192.944,200.774 193.952,199.907 195.278 C 199.375 196.093,198.459 197.508,197.872 198.423 C 196.665 200.303,196.873 200.312,195.635 198.333 C 194.882 197.131,193.101 194.332,191.652 192.074 C 191.083 191.188,189.208 188.233,187.485 185.507 C 185.762 182.781,183.835 179.739,183.204 178.747 C 182.572 177.756,181.798 176.528,181.484 176.019 C 181.169 175.509,180.378 174.259,179.724 173.241 C 179.071 172.222,178.279 170.972,177.963 170.463 C 177.647 169.954,176.873 168.726,176.241 167.736 C 175.609 166.745,174.472 164.953,173.714 163.754 C 172.956 162.555,171.831 160.787,171.214 159.826 C 169.872 157.734,166.384 152.203,164.142 148.611 C 163.252 147.185,162.401 145.873,162.252 145.694 C 161.964 145.352,121.663 145.168,121.669 145.509 " stroke="none" fill="#045cac" fill-rule="evenodd"></path><path id="path1" d="M0.000 200.000 L 0.000 400.000 200.000 400.000 L 400.000 400.000 400.000 200.000 L 400.000 0.000 200.000 0.000 L 0.000 0.000 0.000 200.000 M327.917 145.185 L 372.037 145.185 372.037 160.093 L 372.037 175.000 351.482 175.000 L 330.927 175.000 330.880 229.676 L 330.833 284.352 312.315 284.352 L 293.796 284.352 293.704 229.722 L 293.611 175.093 273.310 175.045 L 253.009 174.998 251.979 176.527 C 251.413 177.368,250.148 179.222,249.168 180.648 C 248.188 182.074,246.915 183.949,246.339 184.815 C 245.763 185.681,245.244 186.431,245.186 186.481 C 245.128 186.532,244.266 187.782,243.269 189.259 C 242.272 190.736,240.710 193.028,239.797 194.352 C 238.883 195.676,237.663 197.468,237.084 198.333 C 236.506 199.199,235.988 199.949,235.933 200.000 C 235.878 200.051,235.192 201.051,234.408 202.222 C 233.625 203.394,232.150 205.560,231.132 207.037 C 230.113 208.514,228.656 210.639,227.892 211.759 C 225.085 215.879,222.231 220.053,219.534 223.981 C 218.905 224.898,217.935 226.315,217.378 227.130 C 216.822 227.944,216.143 228.935,215.869 229.331 L 215.370 230.052 215.370 256.200 L 215.370 282.348 209.229 282.470 C 205.851 282.537,165.518 282.593,119.599 282.593 L 36.111 282.593 36.157 214.306 L 36.204 146.019 54.259 146.019 L 72.315 146.019 72.361 199.676 L 72.408 253.333 125.556 253.333 L 178.704 253.333 178.704 241.564 L 178.704 229.795 176.912 227.166 C 175.927 225.720,174.330 223.370,173.364 221.944 C 171.707 219.500,170.339 217.492,167.684 213.611 C 167.057 212.694,165.724 210.736,164.721 209.259 C 163.718 207.782,162.272 205.657,161.507 204.537 C 160.743 203.417,159.439 201.500,158.609 200.278 C 156.051 196.511,153.650 192.986,151.796 190.278 C 150.820 188.852,149.231 186.519,148.264 185.093 C 147.297 183.667,145.820 181.500,144.983 180.278 C 144.145 179.056,142.500 176.639,141.327 174.907 C 137.915 169.871,135.937 166.965,133.766 163.796 C 131.405 160.350,129.145 157.031,123.260 148.363 C 122.268 146.902,121.412 145.589,121.357 145.446 C 121.271 145.223,124.199 145.185,141.725 145.185 L 162.193 145.185 162.902 146.285 C 163.292 146.890,164.069 148.112,164.630 149.001 C 165.190 149.889,165.981 151.140,166.389 151.781 C 167.193 153.046,168.815 155.612,169.759 157.114 C 170.084 157.632,170.828 158.806,171.411 159.722 C 171.994 160.639,172.762 161.847,173.116 162.407 C 174.176 164.083,174.528 164.635,175.794 166.597 C 176.460 167.629,177.139 168.712,177.304 169.005 C 177.468 169.298,178.413 170.805,179.404 172.355 C 181.229 175.212,188.155 186.125,189.289 187.929 C 189.916 188.928,190.775 190.269,192.660 193.193 C 193.234 194.083,193.704 194.847,193.704 194.891 C 193.704 194.935,194.058 195.501,194.491 196.149 C 194.924 196.797,195.601 197.845,195.996 198.478 C 196.856 199.855,196.681 199.834,197.456 198.657 C 199.032 196.263,200.290 194.326,200.462 194.028 C 200.642 193.714,201.664 192.128,204.352 187.983 C 205.065 186.884,206.190 185.134,206.852 184.094 C 207.514 183.055,208.639 181.307,209.352 180.210 C 210.065 179.114,211.100 177.514,211.651 176.655 C 212.203 175.796,213.085 174.426,213.611 173.611 C 214.137 172.796,214.861 171.671,215.220 171.111 C 216.633 168.909,218.072 166.675,219.240 164.868 C 219.913 163.828,220.959 162.203,221.564 161.257 C 222.170 160.311,223.343 158.495,224.171 157.222 C 224.999 155.949,226.086 154.260,226.588 153.469 C 227.090 152.678,228.167 151.006,228.981 149.754 C 229.796 148.502,230.786 146.963,231.181 146.333 L 231.898 145.188 242.199 145.124 C 247.865 145.088,259.542 145.088,268.148 145.122 C 276.755 145.157,303.650 145.185,327.917 145.185 " stroke="none" fill="#fbfbfb" fill-rule="evenodd"></path><path id="path2" d="M257.533 145.139 C 260.403 145.167,265.153 145.167,268.089 145.139 C 271.024 145.110,268.676 145.087,262.870 145.087 C 257.065 145.087,254.663 145.110,257.533 145.139 M371.940 160.093 C 371.940 168.343,371.963 171.745,371.991 167.653 C 372.018 163.561,372.018 156.811,371.991 152.653 C 371.963 148.495,371.940 151.843,371.940 160.093 M36.197 146.156 C 36.149 146.284,36.130 177.056,36.157 214.537 L 36.204 282.685 36.250 214.398 L 36.296 146.111 54.259 146.111 L 72.222 146.111 72.269 199.722 L 72.316 253.333 72.315 199.676 L 72.315 146.019 54.300 145.971 C 39.986 145.934,36.267 145.972,36.197 146.156 M330.787 229.585 L 330.741 284.263 312.240 284.215 C 302.064 284.188,293.778 284.229,293.825 284.306 C 293.986 284.566,330.741 284.474,330.840 284.213 C 330.889 284.086,330.907 259.440,330.880 229.444 L 330.833 174.907 330.787 229.585 M197.034 199.264 C 196.924 199.471,196.741 199.583,196.629 199.514 C 196.504 199.437,196.477 199.472,196.558 199.604 C 196.632 199.723,196.769 199.773,196.864 199.715 C 197.068 199.589,197.461 198.889,197.328 198.889 C 197.277 198.889,197.145 199.058,197.034 199.264 M178.749 241.527 L 178.704 253.332 154.306 253.380 L 129.907 253.427 154.311 253.473 C 173.698 253.509,178.734 253.471,178.804 253.287 C 178.852 253.160,178.870 247.806,178.843 241.389 L 178.793 229.722 178.749 241.527 M215.275 256.296 C 215.275 270.708,215.297 276.604,215.324 269.398 C 215.351 262.192,215.351 250.400,215.324 243.194 C 215.297 235.988,215.275 241.884,215.275 256.296 " stroke="none" fill="#adcee2" fill-rule="evenodd"></path><path id="path3" d="M131.514 145.324 C 137.082 145.351,146.249 145.351,151.884 145.324 C 157.519 145.297,152.963 145.275,141.759 145.275 C 130.556 145.275,125.945 145.297,131.514 145.324 M237.189 145.324 C 240.074 145.353,244.740 145.353,247.559 145.324 C 250.379 145.295,248.019 145.272,242.315 145.272 C 236.611 145.272,234.305 145.295,237.189 145.324 M263.194 174.954 C 268.771 174.981,277.896 174.981,283.472 174.954 C 289.049 174.926,284.486 174.904,273.333 174.904 C 262.181 174.904,257.618 174.926,263.194 174.954 M341.172 174.954 C 346.858 174.981,356.108 174.981,361.727 174.954 C 367.347 174.926,362.694 174.904,351.389 174.904 C 340.083 174.904,335.486 174.926,341.172 174.954 M293.795 229.537 C 293.795 259.583,293.816 271.847,293.843 256.791 C 293.869 241.734,293.869 217.150,293.843 202.161 C 293.816 187.172,293.795 199.491,293.795 229.537 M149.213 282.546 C 159.831 282.573,177.206 282.573,187.824 282.546 C 198.442 282.520,189.755 282.498,168.519 282.498 C 147.282 282.498,138.595 282.520,149.213 282.546 " stroke="none" fill="#7cacd4" fill-rule="evenodd"></path><path id="path4" d="M282.376 145.324 C 298.808 145.350,325.641 145.350,342.006 145.324 C 358.370 145.298,344.926 145.277,312.130 145.277 C 279.333 145.277,265.944 145.298,282.376 145.324 M330.679 174.938 C 330.611 175.006,330.556 199.589,330.556 229.567 L 330.556 284.072 312.176 284.121 L 293.796 284.169 312.222 284.168 L 330.648 284.167 330.741 229.491 C 330.792 199.419,330.826 174.815,330.818 174.815 C 330.809 174.815,330.747 174.870,330.679 174.938 M196.285 199.388 C 196.568 199.966,196.774 200.043,197.053 199.674 C 197.262 199.398,197.259 199.386,197.033 199.588 C 196.814 199.783,196.708 199.751,196.427 199.403 C 196.093 198.990,196.090 198.990,196.285 199.388 M86.620 253.472 C 94.590 253.499,107.632 253.499,115.602 253.472 C 123.572 253.445,117.051 253.424,101.111 253.424 C 85.171 253.424,78.650 253.445,86.620 253.472 M209.110 282.360 C 210.199 282.393,212.033 282.393,213.184 282.361 C 214.336 282.328,213.444 282.301,211.204 282.301 C 208.963 282.301,208.021 282.328,209.110 282.360 M52.532 282.546 C 61.512 282.573,76.262 282.573,85.309 282.546 C 94.357 282.520,87.009 282.498,68.981 282.498 C 50.954 282.498,43.551 282.520,52.532 282.546 " stroke="none" fill="#6da4d3" fill-rule="evenodd"></path></g></svg>